<mxfile host="app.diagrams.net" modified="2021-10-11T07:29:11.985Z" agent="5.0 (Windows NT 10.0; Win64; x64) AppleWebKit/537.36 (KHTML, like Gecko) Chrome/94.0.4606.71 Safari/537.36" etag="LRXZ6hYcPCyxFoNiEQd6" version="15.5.0" type="github">
  <diagram id="R2lEEEUBdFMjLlhIrx00" name="Page-1">
    <mxGraphModel dx="1871" dy="612" grid="1" gridSize="10" guides="1" tooltips="1" connect="1" arrows="1" fold="1" page="1" pageScale="1" pageWidth="850" pageHeight="1100" math="0" shadow="0" extFonts="Permanent Marker^https://fonts.googleapis.com/css?family=Permanent+Marker">
      <root>
        <mxCell id="0" />
        <mxCell id="1" parent="0" />
        <mxCell id="EnK7ZEEUQP7-fDyvzvS8-1" value="HOTEL" style="rounded=0;whiteSpace=wrap;html=1;fontSize=13;fontStyle=0" vertex="1" parent="1">
          <mxGeometry x="-50" y="310" width="120" height="60" as="geometry" />
        </mxCell>
        <mxCell id="EnK7ZEEUQP7-fDyvzvS8-2" value="kamar" style="rounded=0;whiteSpace=wrap;html=1;fontSize=13;fontStyle=0" vertex="1" parent="1">
          <mxGeometry x="275" y="350" width="120" height="60" as="geometry" />
        </mxCell>
        <mxCell id="EnK7ZEEUQP7-fDyvzvS8-5" value="kategori_kamar" style="rounded=0;whiteSpace=wrap;html=1;fontSize=13;fontStyle=0" vertex="1" parent="1">
          <mxGeometry x="275" y="580" width="120" height="60" as="geometry" />
        </mxCell>
        <mxCell id="EnK7ZEEUQP7-fDyvzvS8-19" style="edgeStyle=orthogonalEdgeStyle;rounded=0;orthogonalLoop=1;jettySize=auto;html=1;fontSize=13;fontStyle=0" edge="1" parent="1" source="EnK7ZEEUQP7-fDyvzvS8-7" target="EnK7ZEEUQP7-fDyvzvS8-5">
          <mxGeometry relative="1" as="geometry">
            <Array as="points">
              <mxPoint x="210" y="670" />
              <mxPoint x="335" y="670" />
            </Array>
          </mxGeometry>
        </mxCell>
        <mxCell id="EnK7ZEEUQP7-fDyvzvS8-7" value="harga" style="ellipse;whiteSpace=wrap;html=1;fontSize=13;fontStyle=0" vertex="1" parent="1">
          <mxGeometry x="140" y="700" width="120" height="80" as="geometry" />
        </mxCell>
        <mxCell id="EnK7ZEEUQP7-fDyvzvS8-20" style="edgeStyle=orthogonalEdgeStyle;rounded=0;orthogonalLoop=1;jettySize=auto;html=1;fontSize=13;fontStyle=0" edge="1" parent="1" source="EnK7ZEEUQP7-fDyvzvS8-14" target="EnK7ZEEUQP7-fDyvzvS8-5">
          <mxGeometry relative="1" as="geometry" />
        </mxCell>
        <mxCell id="EnK7ZEEUQP7-fDyvzvS8-14" value="fasilitas" style="ellipse;whiteSpace=wrap;html=1;fontSize=13;fontStyle=0" vertex="1" parent="1">
          <mxGeometry x="275" y="700" width="120" height="80" as="geometry" />
        </mxCell>
        <mxCell id="EnK7ZEEUQP7-fDyvzvS8-45" style="edgeStyle=orthogonalEdgeStyle;rounded=0;orthogonalLoop=1;jettySize=auto;html=1;fontSize=13;fontStyle=0;endArrow=ERmany;endFill=0;" edge="1" parent="1" source="EnK7ZEEUQP7-fDyvzvS8-34" target="EnK7ZEEUQP7-fDyvzvS8-5">
          <mxGeometry relative="1" as="geometry" />
        </mxCell>
        <mxCell id="EnK7ZEEUQP7-fDyvzvS8-84" style="edgeStyle=orthogonalEdgeStyle;rounded=0;orthogonalLoop=1;jettySize=auto;html=1;fontSize=13;endArrow=ERone;endFill=0;" edge="1" parent="1" source="EnK7ZEEUQP7-fDyvzvS8-34" target="EnK7ZEEUQP7-fDyvzvS8-2">
          <mxGeometry relative="1" as="geometry" />
        </mxCell>
        <mxCell id="EnK7ZEEUQP7-fDyvzvS8-34" value="memiliki" style="rhombus;whiteSpace=wrap;html=1;fontSize=13;fontStyle=0" vertex="1" parent="1">
          <mxGeometry x="295" y="460" width="80" height="80" as="geometry" />
        </mxCell>
        <mxCell id="EnK7ZEEUQP7-fDyvzvS8-39" style="edgeStyle=orthogonalEdgeStyle;rounded=0;orthogonalLoop=1;jettySize=auto;html=1;fontSize=13;fontStyle=0;endArrow=ERmany;endFill=0;" edge="1" parent="1" source="EnK7ZEEUQP7-fDyvzvS8-35" target="EnK7ZEEUQP7-fDyvzvS8-2">
          <mxGeometry relative="1" as="geometry" />
        </mxCell>
        <mxCell id="EnK7ZEEUQP7-fDyvzvS8-85" style="edgeStyle=orthogonalEdgeStyle;rounded=0;orthogonalLoop=1;jettySize=auto;html=1;fontSize=13;endArrow=ERone;endFill=0;" edge="1" parent="1" source="EnK7ZEEUQP7-fDyvzvS8-35" target="EnK7ZEEUQP7-fDyvzvS8-1">
          <mxGeometry relative="1" as="geometry">
            <mxPoint x="90" y="340" as="targetPoint" />
          </mxGeometry>
        </mxCell>
        <mxCell id="EnK7ZEEUQP7-fDyvzvS8-35" value="memiliki" style="rhombus;whiteSpace=wrap;html=1;fontSize=13;fontStyle=0" vertex="1" parent="1">
          <mxGeometry x="135" y="300" width="80" height="80" as="geometry" />
        </mxCell>
        <mxCell id="EnK7ZEEUQP7-fDyvzvS8-47" style="edgeStyle=orthogonalEdgeStyle;rounded=0;orthogonalLoop=1;jettySize=auto;html=1;fontSize=13;fontStyle=0" edge="1" parent="1" source="EnK7ZEEUQP7-fDyvzvS8-46" target="EnK7ZEEUQP7-fDyvzvS8-2">
          <mxGeometry relative="1" as="geometry">
            <Array as="points">
              <mxPoint x="270" y="330" />
              <mxPoint x="335" y="330" />
            </Array>
          </mxGeometry>
        </mxCell>
        <mxCell id="EnK7ZEEUQP7-fDyvzvS8-46" value="id_kamar" style="ellipse;whiteSpace=wrap;html=1;fontSize=13;fontStyle=5" vertex="1" parent="1">
          <mxGeometry x="190" y="180" width="120" height="80" as="geometry" />
        </mxCell>
        <mxCell id="EnK7ZEEUQP7-fDyvzvS8-53" style="edgeStyle=orthogonalEdgeStyle;rounded=0;orthogonalLoop=1;jettySize=auto;html=1;fontSize=13;fontStyle=0" edge="1" parent="1" source="EnK7ZEEUQP7-fDyvzvS8-51" target="EnK7ZEEUQP7-fDyvzvS8-1">
          <mxGeometry relative="1" as="geometry">
            <Array as="points">
              <mxPoint x="-140" y="340" />
            </Array>
          </mxGeometry>
        </mxCell>
        <mxCell id="EnK7ZEEUQP7-fDyvzvS8-51" value="id_hotel" style="ellipse;whiteSpace=wrap;html=1;fontSize=13;fontStyle=5" vertex="1" parent="1">
          <mxGeometry x="-210" y="210" width="120" height="80" as="geometry" />
        </mxCell>
        <mxCell id="EnK7ZEEUQP7-fDyvzvS8-54" style="edgeStyle=orthogonalEdgeStyle;rounded=0;orthogonalLoop=1;jettySize=auto;html=1;fontSize=13;fontStyle=0" edge="1" parent="1" source="EnK7ZEEUQP7-fDyvzvS8-52" target="EnK7ZEEUQP7-fDyvzvS8-1">
          <mxGeometry relative="1" as="geometry">
            <Array as="points">
              <mxPoint x="-140" y="340" />
            </Array>
          </mxGeometry>
        </mxCell>
        <mxCell id="EnK7ZEEUQP7-fDyvzvS8-52" value="nama_hotel" style="ellipse;whiteSpace=wrap;html=1;fontSize=13;fontStyle=0" vertex="1" parent="1">
          <mxGeometry x="-200" y="380" width="120" height="80" as="geometry" />
        </mxCell>
        <mxCell id="EnK7ZEEUQP7-fDyvzvS8-138" style="edgeStyle=orthogonalEdgeStyle;rounded=0;orthogonalLoop=1;jettySize=auto;html=1;fontSize=13;endArrow=classic;endFill=1;entryX=0.5;entryY=1;entryDx=0;entryDy=0;" edge="1" parent="1" source="EnK7ZEEUQP7-fDyvzvS8-63" target="EnK7ZEEUQP7-fDyvzvS8-5">
          <mxGeometry relative="1" as="geometry">
            <mxPoint x="400" y="600" as="targetPoint" />
            <Array as="points">
              <mxPoint x="433" y="630" />
              <mxPoint x="433" y="670" />
              <mxPoint x="335" y="670" />
            </Array>
          </mxGeometry>
        </mxCell>
        <mxCell id="EnK7ZEEUQP7-fDyvzvS8-63" value="no_kamar" style="ellipse;whiteSpace=wrap;html=1;fontSize=13;fontStyle=5" vertex="1" parent="1">
          <mxGeometry x="470" y="590" width="120" height="80" as="geometry" />
        </mxCell>
        <mxCell id="EnK7ZEEUQP7-fDyvzvS8-71" value="ERD Kategori Kamar" style="text;html=1;strokeColor=none;fillColor=none;align=center;verticalAlign=middle;whiteSpace=wrap;rounded=0;fontSize=25;fontStyle=1" vertex="1" parent="1">
          <mxGeometry x="125" y="40" width="300" height="40" as="geometry" />
        </mxCell>
        <mxCell id="EnK7ZEEUQP7-fDyvzvS8-72" value="ERD Wali Kelas" style="text;html=1;strokeColor=none;fillColor=none;align=center;verticalAlign=middle;whiteSpace=wrap;rounded=0;fontSize=25;fontStyle=1" vertex="1" parent="1">
          <mxGeometry x="120" y="840" width="300" height="40" as="geometry" />
        </mxCell>
        <mxCell id="EnK7ZEEUQP7-fDyvzvS8-73" value="ERD Kategori Barang" style="text;html=1;strokeColor=none;fillColor=none;align=center;verticalAlign=middle;whiteSpace=wrap;rounded=0;fontSize=25;fontStyle=1" vertex="1" parent="1">
          <mxGeometry x="100" y="1560" width="300" height="40" as="geometry" />
        </mxCell>
        <mxCell id="EnK7ZEEUQP7-fDyvzvS8-74" value="&lt;font style=&quot;font-size: 13px;&quot;&gt;Wali_kelas&lt;/font&gt;" style="rounded=0;whiteSpace=wrap;html=1;fontSize=13;" vertex="1" parent="1">
          <mxGeometry x="175" y="1060" width="120" height="60" as="geometry" />
        </mxCell>
        <mxCell id="EnK7ZEEUQP7-fDyvzvS8-75" value="&lt;font style=&quot;font-size: 13px&quot;&gt;siswa&lt;/font&gt;" style="rounded=0;whiteSpace=wrap;html=1;fontSize=13;" vertex="1" parent="1">
          <mxGeometry x="-80" y="1190" width="120" height="60" as="geometry" />
        </mxCell>
        <mxCell id="EnK7ZEEUQP7-fDyvzvS8-76" value="guru" style="rounded=0;whiteSpace=wrap;html=1;fontSize=13;" vertex="1" parent="1">
          <mxGeometry x="430" y="1190" width="120" height="60" as="geometry" />
        </mxCell>
        <mxCell id="EnK7ZEEUQP7-fDyvzvS8-81" style="edgeStyle=orthogonalEdgeStyle;rounded=0;orthogonalLoop=1;jettySize=auto;html=1;fontSize=13;endArrow=ERone;endFill=0;" edge="1" parent="1" source="EnK7ZEEUQP7-fDyvzvS8-78" target="EnK7ZEEUQP7-fDyvzvS8-74">
          <mxGeometry relative="1" as="geometry">
            <Array as="points">
              <mxPoint x="140" y="1090" />
            </Array>
          </mxGeometry>
        </mxCell>
        <mxCell id="EnK7ZEEUQP7-fDyvzvS8-131" style="edgeStyle=orthogonalEdgeStyle;rounded=0;orthogonalLoop=1;jettySize=auto;html=1;fontSize=13;endArrow=ERmany;endFill=0;" edge="1" parent="1" source="EnK7ZEEUQP7-fDyvzvS8-78" target="EnK7ZEEUQP7-fDyvzvS8-75">
          <mxGeometry relative="1" as="geometry" />
        </mxCell>
        <mxCell id="EnK7ZEEUQP7-fDyvzvS8-78" value="memiliki" style="rhombus;whiteSpace=wrap;html=1;fontSize=13;" vertex="1" parent="1">
          <mxGeometry x="100" y="1180" width="80" height="80" as="geometry" />
        </mxCell>
        <mxCell id="EnK7ZEEUQP7-fDyvzvS8-83" style="edgeStyle=orthogonalEdgeStyle;rounded=0;orthogonalLoop=1;jettySize=auto;html=1;fontSize=13;endArrow=ERone;endFill=0;" edge="1" parent="1" source="EnK7ZEEUQP7-fDyvzvS8-79" target="EnK7ZEEUQP7-fDyvzvS8-74">
          <mxGeometry relative="1" as="geometry">
            <Array as="points">
              <mxPoint x="335" y="1090" />
            </Array>
          </mxGeometry>
        </mxCell>
        <mxCell id="EnK7ZEEUQP7-fDyvzvS8-132" style="edgeStyle=orthogonalEdgeStyle;rounded=0;orthogonalLoop=1;jettySize=auto;html=1;fontSize=13;endArrow=ERmany;endFill=0;" edge="1" parent="1" source="EnK7ZEEUQP7-fDyvzvS8-79" target="EnK7ZEEUQP7-fDyvzvS8-76">
          <mxGeometry relative="1" as="geometry" />
        </mxCell>
        <mxCell id="EnK7ZEEUQP7-fDyvzvS8-79" value="menjadi" style="rhombus;whiteSpace=wrap;html=1;fontSize=13;" vertex="1" parent="1">
          <mxGeometry x="295" y="1180" width="80" height="80" as="geometry" />
        </mxCell>
        <mxCell id="EnK7ZEEUQP7-fDyvzvS8-128" style="edgeStyle=orthogonalEdgeStyle;rounded=0;orthogonalLoop=1;jettySize=auto;html=1;entryX=0.5;entryY=0;entryDx=0;entryDy=0;fontSize=13;endArrow=classic;endFill=1;" edge="1" parent="1" source="EnK7ZEEUQP7-fDyvzvS8-89" target="EnK7ZEEUQP7-fDyvzvS8-74">
          <mxGeometry relative="1" as="geometry" />
        </mxCell>
        <mxCell id="EnK7ZEEUQP7-fDyvzvS8-89" value="NIP" style="ellipse;whiteSpace=wrap;html=1;fontSize=13;fontStyle=5" vertex="1" parent="1">
          <mxGeometry x="155" y="920" width="120" height="80" as="geometry" />
        </mxCell>
        <mxCell id="EnK7ZEEUQP7-fDyvzvS8-115" style="edgeStyle=orthogonalEdgeStyle;rounded=0;orthogonalLoop=1;jettySize=auto;html=1;entryX=1;entryY=0.5;entryDx=0;entryDy=0;fontSize=13;endArrow=classic;endFill=1;" edge="1" parent="1" source="EnK7ZEEUQP7-fDyvzvS8-93" target="EnK7ZEEUQP7-fDyvzvS8-76">
          <mxGeometry relative="1" as="geometry">
            <Array as="points">
              <mxPoint x="580" y="1010" />
              <mxPoint x="580" y="1220" />
            </Array>
          </mxGeometry>
        </mxCell>
        <mxCell id="EnK7ZEEUQP7-fDyvzvS8-93" value="nama" style="ellipse;whiteSpace=wrap;html=1;fontSize=13;" vertex="1" parent="1">
          <mxGeometry x="620" y="970" width="120" height="80" as="geometry" />
        </mxCell>
        <mxCell id="EnK7ZEEUQP7-fDyvzvS8-116" style="edgeStyle=orthogonalEdgeStyle;rounded=0;orthogonalLoop=1;jettySize=auto;html=1;fontSize=13;endArrow=classic;endFill=1;" edge="1" parent="1" source="EnK7ZEEUQP7-fDyvzvS8-94" target="EnK7ZEEUQP7-fDyvzvS8-76">
          <mxGeometry relative="1" as="geometry">
            <Array as="points">
              <mxPoint x="580" y="1100" />
              <mxPoint x="580" y="1220" />
            </Array>
          </mxGeometry>
        </mxCell>
        <mxCell id="EnK7ZEEUQP7-fDyvzvS8-94" value="tgl_lahir" style="ellipse;whiteSpace=wrap;html=1;fontSize=13;" vertex="1" parent="1">
          <mxGeometry x="620" y="1060" width="120" height="80" as="geometry" />
        </mxCell>
        <mxCell id="EnK7ZEEUQP7-fDyvzvS8-117" style="edgeStyle=orthogonalEdgeStyle;rounded=0;orthogonalLoop=1;jettySize=auto;html=1;fontSize=13;endArrow=classic;endFill=1;" edge="1" parent="1" source="EnK7ZEEUQP7-fDyvzvS8-95" target="EnK7ZEEUQP7-fDyvzvS8-76">
          <mxGeometry relative="1" as="geometry">
            <Array as="points">
              <mxPoint x="580" y="1190" />
              <mxPoint x="580" y="1220" />
            </Array>
          </mxGeometry>
        </mxCell>
        <mxCell id="EnK7ZEEUQP7-fDyvzvS8-95" value="alamat" style="ellipse;whiteSpace=wrap;html=1;fontSize=13;" vertex="1" parent="1">
          <mxGeometry x="620" y="1150" width="120" height="80" as="geometry" />
        </mxCell>
        <mxCell id="EnK7ZEEUQP7-fDyvzvS8-118" style="edgeStyle=orthogonalEdgeStyle;rounded=0;orthogonalLoop=1;jettySize=auto;html=1;entryX=1;entryY=0.5;entryDx=0;entryDy=0;fontSize=13;endArrow=classic;endFill=1;" edge="1" parent="1" source="EnK7ZEEUQP7-fDyvzvS8-96" target="EnK7ZEEUQP7-fDyvzvS8-76">
          <mxGeometry relative="1" as="geometry">
            <Array as="points">
              <mxPoint x="580" y="1280" />
              <mxPoint x="580" y="1220" />
            </Array>
          </mxGeometry>
        </mxCell>
        <mxCell id="EnK7ZEEUQP7-fDyvzvS8-96" value="jenis_kelamin" style="ellipse;whiteSpace=wrap;html=1;fontSize=13;" vertex="1" parent="1">
          <mxGeometry x="620" y="1240" width="120" height="80" as="geometry" />
        </mxCell>
        <mxCell id="EnK7ZEEUQP7-fDyvzvS8-119" style="edgeStyle=orthogonalEdgeStyle;rounded=0;orthogonalLoop=1;jettySize=auto;html=1;entryX=1;entryY=0.5;entryDx=0;entryDy=0;fontSize=13;endArrow=classic;endFill=1;" edge="1" parent="1" source="EnK7ZEEUQP7-fDyvzvS8-97" target="EnK7ZEEUQP7-fDyvzvS8-76">
          <mxGeometry relative="1" as="geometry">
            <Array as="points">
              <mxPoint x="580" y="1380" />
              <mxPoint x="580" y="1220" />
            </Array>
          </mxGeometry>
        </mxCell>
        <mxCell id="EnK7ZEEUQP7-fDyvzvS8-97" value="agama" style="ellipse;whiteSpace=wrap;html=1;fontSize=13;" vertex="1" parent="1">
          <mxGeometry x="620" y="1340" width="120" height="80" as="geometry" />
        </mxCell>
        <mxCell id="EnK7ZEEUQP7-fDyvzvS8-121" style="edgeStyle=orthogonalEdgeStyle;rounded=0;orthogonalLoop=1;jettySize=auto;html=1;fontSize=13;endArrow=classic;endFill=1;" edge="1" parent="1" source="EnK7ZEEUQP7-fDyvzvS8-103" target="EnK7ZEEUQP7-fDyvzvS8-75">
          <mxGeometry relative="1" as="geometry" />
        </mxCell>
        <mxCell id="EnK7ZEEUQP7-fDyvzvS8-103" value="NIP" style="ellipse;whiteSpace=wrap;html=1;fontSize=13;fontStyle=5" vertex="1" parent="1">
          <mxGeometry x="-80" y="1320" width="120" height="80" as="geometry" />
        </mxCell>
        <mxCell id="EnK7ZEEUQP7-fDyvzvS8-122" style="edgeStyle=orthogonalEdgeStyle;rounded=0;orthogonalLoop=1;jettySize=auto;html=1;fontSize=13;endArrow=classic;endFill=1;" edge="1" parent="1" source="EnK7ZEEUQP7-fDyvzvS8-104" target="EnK7ZEEUQP7-fDyvzvS8-75">
          <mxGeometry relative="1" as="geometry">
            <Array as="points">
              <mxPoint x="-120" y="1020" />
              <mxPoint x="-120" y="1220" />
            </Array>
          </mxGeometry>
        </mxCell>
        <mxCell id="EnK7ZEEUQP7-fDyvzvS8-104" value="nama" style="ellipse;whiteSpace=wrap;html=1;fontSize=13;" vertex="1" parent="1">
          <mxGeometry x="-290" y="980" width="120" height="80" as="geometry" />
        </mxCell>
        <mxCell id="EnK7ZEEUQP7-fDyvzvS8-123" style="edgeStyle=orthogonalEdgeStyle;rounded=0;orthogonalLoop=1;jettySize=auto;html=1;fontSize=13;endArrow=classic;endFill=1;" edge="1" parent="1" source="EnK7ZEEUQP7-fDyvzvS8-105" target="EnK7ZEEUQP7-fDyvzvS8-75">
          <mxGeometry relative="1" as="geometry">
            <Array as="points">
              <mxPoint x="-120" y="1110" />
              <mxPoint x="-120" y="1220" />
            </Array>
          </mxGeometry>
        </mxCell>
        <mxCell id="EnK7ZEEUQP7-fDyvzvS8-105" value="tgl_lahir" style="ellipse;whiteSpace=wrap;html=1;fontSize=13;" vertex="1" parent="1">
          <mxGeometry x="-290" y="1070" width="120" height="80" as="geometry" />
        </mxCell>
        <mxCell id="EnK7ZEEUQP7-fDyvzvS8-124" style="edgeStyle=orthogonalEdgeStyle;rounded=0;orthogonalLoop=1;jettySize=auto;html=1;fontSize=13;endArrow=classic;endFill=1;" edge="1" parent="1" source="EnK7ZEEUQP7-fDyvzvS8-106" target="EnK7ZEEUQP7-fDyvzvS8-75">
          <mxGeometry relative="1" as="geometry">
            <Array as="points">
              <mxPoint x="-120" y="1200" />
              <mxPoint x="-120" y="1220" />
            </Array>
          </mxGeometry>
        </mxCell>
        <mxCell id="EnK7ZEEUQP7-fDyvzvS8-106" value="alamat" style="ellipse;whiteSpace=wrap;html=1;fontSize=13;" vertex="1" parent="1">
          <mxGeometry x="-290" y="1160" width="120" height="80" as="geometry" />
        </mxCell>
        <mxCell id="EnK7ZEEUQP7-fDyvzvS8-125" style="edgeStyle=orthogonalEdgeStyle;rounded=0;orthogonalLoop=1;jettySize=auto;html=1;fontSize=13;endArrow=classic;endFill=1;" edge="1" parent="1" source="EnK7ZEEUQP7-fDyvzvS8-107" target="EnK7ZEEUQP7-fDyvzvS8-75">
          <mxGeometry relative="1" as="geometry">
            <Array as="points">
              <mxPoint x="-120" y="1290" />
              <mxPoint x="-120" y="1220" />
            </Array>
          </mxGeometry>
        </mxCell>
        <mxCell id="EnK7ZEEUQP7-fDyvzvS8-107" value="jenis_kelamin" style="ellipse;whiteSpace=wrap;html=1;fontSize=13;" vertex="1" parent="1">
          <mxGeometry x="-290" y="1250" width="120" height="80" as="geometry" />
        </mxCell>
        <mxCell id="EnK7ZEEUQP7-fDyvzvS8-126" style="edgeStyle=orthogonalEdgeStyle;rounded=0;orthogonalLoop=1;jettySize=auto;html=1;fontSize=13;endArrow=classic;endFill=1;" edge="1" parent="1" source="EnK7ZEEUQP7-fDyvzvS8-108" target="EnK7ZEEUQP7-fDyvzvS8-75">
          <mxGeometry relative="1" as="geometry">
            <Array as="points">
              <mxPoint x="-120" y="1390" />
              <mxPoint x="-120" y="1220" />
            </Array>
          </mxGeometry>
        </mxCell>
        <mxCell id="EnK7ZEEUQP7-fDyvzvS8-108" value="agama" style="ellipse;whiteSpace=wrap;html=1;fontSize=13;" vertex="1" parent="1">
          <mxGeometry x="-290" y="1350" width="120" height="80" as="geometry" />
        </mxCell>
        <mxCell id="EnK7ZEEUQP7-fDyvzvS8-120" style="edgeStyle=orthogonalEdgeStyle;rounded=0;orthogonalLoop=1;jettySize=auto;html=1;fontSize=13;endArrow=classic;endFill=1;" edge="1" parent="1" source="EnK7ZEEUQP7-fDyvzvS8-109" target="EnK7ZEEUQP7-fDyvzvS8-76">
          <mxGeometry relative="1" as="geometry" />
        </mxCell>
        <mxCell id="EnK7ZEEUQP7-fDyvzvS8-109" value="NIP" style="ellipse;whiteSpace=wrap;html=1;fontSize=13;fontStyle=5" vertex="1" parent="1">
          <mxGeometry x="430" y="1320" width="120" height="80" as="geometry" />
        </mxCell>
        <mxCell id="EnK7ZEEUQP7-fDyvzvS8-127" style="edgeStyle=orthogonalEdgeStyle;rounded=0;orthogonalLoop=1;jettySize=auto;html=1;fontSize=13;endArrow=classic;endFill=1;" edge="1" parent="1" source="EnK7ZEEUQP7-fDyvzvS8-111" target="EnK7ZEEUQP7-fDyvzvS8-74">
          <mxGeometry relative="1" as="geometry">
            <Array as="points">
              <mxPoint x="65" y="1030" />
              <mxPoint x="235" y="1030" />
            </Array>
          </mxGeometry>
        </mxCell>
        <mxCell id="EnK7ZEEUQP7-fDyvzvS8-111" value="id_Wali_kelas" style="ellipse;whiteSpace=wrap;html=1;fontSize=13;fontStyle=5" vertex="1" parent="1">
          <mxGeometry x="5" y="920" width="120" height="80" as="geometry" />
        </mxCell>
        <mxCell id="EnK7ZEEUQP7-fDyvzvS8-129" style="edgeStyle=orthogonalEdgeStyle;rounded=0;orthogonalLoop=1;jettySize=auto;html=1;entryX=0.5;entryY=0;entryDx=0;entryDy=0;fontSize=13;endArrow=classic;endFill=1;" edge="1" parent="1" source="EnK7ZEEUQP7-fDyvzvS8-112" target="EnK7ZEEUQP7-fDyvzvS8-74">
          <mxGeometry relative="1" as="geometry">
            <Array as="points">
              <mxPoint x="365" y="1030" />
              <mxPoint x="235" y="1030" />
            </Array>
          </mxGeometry>
        </mxCell>
        <mxCell id="EnK7ZEEUQP7-fDyvzvS8-112" value="nama" style="ellipse;whiteSpace=wrap;html=1;fontSize=13;" vertex="1" parent="1">
          <mxGeometry x="305" y="920" width="120" height="80" as="geometry" />
        </mxCell>
        <mxCell id="EnK7ZEEUQP7-fDyvzvS8-134" style="edgeStyle=orthogonalEdgeStyle;rounded=0;orthogonalLoop=1;jettySize=auto;html=1;entryX=0.5;entryY=1;entryDx=0;entryDy=0;fontSize=13;endArrow=classic;endFill=1;" edge="1" parent="1" source="EnK7ZEEUQP7-fDyvzvS8-133" target="EnK7ZEEUQP7-fDyvzvS8-75">
          <mxGeometry relative="1" as="geometry">
            <Array as="points">
              <mxPoint x="115" y="1280" />
              <mxPoint x="-20" y="1280" />
            </Array>
          </mxGeometry>
        </mxCell>
        <mxCell id="EnK7ZEEUQP7-fDyvzvS8-133" value="id_Wali_kelas" style="ellipse;whiteSpace=wrap;html=1;fontSize=13;fontStyle=5" vertex="1" parent="1">
          <mxGeometry x="60" y="1320" width="120" height="80" as="geometry" />
        </mxCell>
        <mxCell id="EnK7ZEEUQP7-fDyvzvS8-135" value="barang" style="rounded=0;whiteSpace=wrap;html=1;fontSize=13;" vertex="1" parent="1">
          <mxGeometry x="-10" y="1760" width="120" height="60" as="geometry" />
        </mxCell>
        <mxCell id="EnK7ZEEUQP7-fDyvzvS8-137" style="edgeStyle=orthogonalEdgeStyle;rounded=0;orthogonalLoop=1;jettySize=auto;html=1;fontSize=13;endArrow=classic;endFill=1;" edge="1" parent="1" source="EnK7ZEEUQP7-fDyvzvS8-136" target="EnK7ZEEUQP7-fDyvzvS8-5">
          <mxGeometry relative="1" as="geometry">
            <Array as="points">
              <mxPoint x="470" y="670" />
              <mxPoint x="335" y="670" />
            </Array>
          </mxGeometry>
        </mxCell>
        <mxCell id="EnK7ZEEUQP7-fDyvzvS8-136" value="jenis_kamar" style="ellipse;whiteSpace=wrap;html=1;fontSize=13;" vertex="1" parent="1">
          <mxGeometry x="410" y="700" width="120" height="80" as="geometry" />
        </mxCell>
        <mxCell id="EnK7ZEEUQP7-fDyvzvS8-142" style="edgeStyle=orthogonalEdgeStyle;rounded=0;orthogonalLoop=1;jettySize=auto;html=1;fontSize=13;endArrow=classic;endFill=1;" edge="1" parent="1" source="EnK7ZEEUQP7-fDyvzvS8-141" target="EnK7ZEEUQP7-fDyvzvS8-2">
          <mxGeometry relative="1" as="geometry">
            <Array as="points">
              <mxPoint x="395" y="330" />
              <mxPoint x="335" y="330" />
            </Array>
          </mxGeometry>
        </mxCell>
        <mxCell id="EnK7ZEEUQP7-fDyvzvS8-141" value="no_kamar" style="ellipse;whiteSpace=wrap;html=1;fontSize=13;fontStyle=5" vertex="1" parent="1">
          <mxGeometry x="335" y="180" width="120" height="80" as="geometry" />
        </mxCell>
        <mxCell id="EnK7ZEEUQP7-fDyvzvS8-151" style="edgeStyle=orthogonalEdgeStyle;rounded=0;orthogonalLoop=1;jettySize=auto;html=1;fontSize=13;endArrow=classic;endFill=1;" edge="1" parent="1" source="EnK7ZEEUQP7-fDyvzvS8-150" target="EnK7ZEEUQP7-fDyvzvS8-2">
          <mxGeometry relative="1" as="geometry">
            <Array as="points">
              <mxPoint x="420" y="280" />
              <mxPoint x="420" y="330" />
              <mxPoint x="335" y="330" />
            </Array>
          </mxGeometry>
        </mxCell>
        <mxCell id="EnK7ZEEUQP7-fDyvzvS8-150" value="tgl_awal" style="ellipse;whiteSpace=wrap;html=1;fontSize=13;" vertex="1" parent="1">
          <mxGeometry x="450" y="240" width="120" height="80" as="geometry" />
        </mxCell>
        <mxCell id="EnK7ZEEUQP7-fDyvzvS8-153" style="edgeStyle=orthogonalEdgeStyle;rounded=0;orthogonalLoop=1;jettySize=auto;html=1;entryX=1;entryY=0.5;entryDx=0;entryDy=0;fontSize=13;endArrow=classic;endFill=1;" edge="1" parent="1" source="EnK7ZEEUQP7-fDyvzvS8-152" target="EnK7ZEEUQP7-fDyvzvS8-2">
          <mxGeometry relative="1" as="geometry" />
        </mxCell>
        <mxCell id="EnK7ZEEUQP7-fDyvzvS8-152" value="tgl_akhir" style="ellipse;whiteSpace=wrap;html=1;fontSize=13;" vertex="1" parent="1">
          <mxGeometry x="450" y="340" width="120" height="80" as="geometry" />
        </mxCell>
        <mxCell id="EnK7ZEEUQP7-fDyvzvS8-154" value="gudang" style="rounded=0;whiteSpace=wrap;html=1;fontSize=13;" vertex="1" parent="1">
          <mxGeometry x="350" y="1760" width="120" height="60" as="geometry" />
        </mxCell>
        <mxCell id="EnK7ZEEUQP7-fDyvzvS8-155" value="kategori_barang" style="rounded=0;whiteSpace=wrap;html=1;fontSize=13;" vertex="1" parent="1">
          <mxGeometry x="270" y="2010" width="120" height="60" as="geometry" />
        </mxCell>
        <mxCell id="EnK7ZEEUQP7-fDyvzvS8-162" style="edgeStyle=orthogonalEdgeStyle;rounded=0;orthogonalLoop=1;jettySize=auto;html=1;fontSize=13;endArrow=ERone;endFill=0;" edge="1" parent="1" source="EnK7ZEEUQP7-fDyvzvS8-156" target="EnK7ZEEUQP7-fDyvzvS8-154">
          <mxGeometry relative="1" as="geometry" />
        </mxCell>
        <mxCell id="EnK7ZEEUQP7-fDyvzvS8-163" style="edgeStyle=orthogonalEdgeStyle;rounded=0;orthogonalLoop=1;jettySize=auto;html=1;fontSize=13;endArrow=ERmany;endFill=0;" edge="1" parent="1" source="EnK7ZEEUQP7-fDyvzvS8-156" target="EnK7ZEEUQP7-fDyvzvS8-155">
          <mxGeometry relative="1" as="geometry" />
        </mxCell>
        <mxCell id="EnK7ZEEUQP7-fDyvzvS8-156" value="memiliki" style="rhombus;whiteSpace=wrap;html=1;rounded=0;fontSize=13;" vertex="1" parent="1">
          <mxGeometry x="290" y="1860" width="80" height="80" as="geometry" />
        </mxCell>
        <mxCell id="EnK7ZEEUQP7-fDyvzvS8-160" style="edgeStyle=orthogonalEdgeStyle;rounded=0;orthogonalLoop=1;jettySize=auto;html=1;fontSize=13;endArrow=ERmany;endFill=0;" edge="1" parent="1" source="EnK7ZEEUQP7-fDyvzvS8-158" target="EnK7ZEEUQP7-fDyvzvS8-135">
          <mxGeometry relative="1" as="geometry" />
        </mxCell>
        <mxCell id="EnK7ZEEUQP7-fDyvzvS8-161" style="edgeStyle=orthogonalEdgeStyle;rounded=0;orthogonalLoop=1;jettySize=auto;html=1;fontSize=13;endArrow=ERone;endFill=0;" edge="1" parent="1" source="EnK7ZEEUQP7-fDyvzvS8-158" target="EnK7ZEEUQP7-fDyvzvS8-154">
          <mxGeometry relative="1" as="geometry" />
        </mxCell>
        <mxCell id="EnK7ZEEUQP7-fDyvzvS8-158" value="disimpan" style="rhombus;whiteSpace=wrap;html=1;fontSize=13;" vertex="1" parent="1">
          <mxGeometry x="200" y="1750" width="80" height="80" as="geometry" />
        </mxCell>
        <mxCell id="EnK7ZEEUQP7-fDyvzvS8-167" style="edgeStyle=orthogonalEdgeStyle;rounded=0;orthogonalLoop=1;jettySize=auto;html=1;fontSize=13;endArrow=classic;endFill=1;" edge="1" parent="1" source="EnK7ZEEUQP7-fDyvzvS8-164" target="EnK7ZEEUQP7-fDyvzvS8-155">
          <mxGeometry relative="1" as="geometry">
            <Array as="points">
              <mxPoint x="250" y="2030" />
              <mxPoint x="250" y="2120" />
              <mxPoint x="330" y="2120" />
            </Array>
          </mxGeometry>
        </mxCell>
        <mxCell id="EnK7ZEEUQP7-fDyvzvS8-164" value="id_kb" style="ellipse;whiteSpace=wrap;html=1;fontSize=13;" vertex="1" parent="1">
          <mxGeometry x="35" y="1980" width="120" height="80" as="geometry" />
        </mxCell>
        <mxCell id="EnK7ZEEUQP7-fDyvzvS8-168" style="edgeStyle=orthogonalEdgeStyle;rounded=0;orthogonalLoop=1;jettySize=auto;html=1;fontSize=13;endArrow=classic;endFill=1;" edge="1" parent="1" source="EnK7ZEEUQP7-fDyvzvS8-165" target="EnK7ZEEUQP7-fDyvzvS8-155">
          <mxGeometry relative="1" as="geometry">
            <mxPoint x="50" y="2130" as="targetPoint" />
            <Array as="points">
              <mxPoint x="330" y="2120" />
            </Array>
          </mxGeometry>
        </mxCell>
        <mxCell id="EnK7ZEEUQP7-fDyvzvS8-165" value="jenis_barang" style="ellipse;whiteSpace=wrap;html=1;fontSize=13;" vertex="1" parent="1">
          <mxGeometry x="35" y="2070" width="120" height="80" as="geometry" />
        </mxCell>
        <mxCell id="EnK7ZEEUQP7-fDyvzvS8-173" style="edgeStyle=orthogonalEdgeStyle;rounded=0;orthogonalLoop=1;jettySize=auto;html=1;fontSize=13;endArrow=classic;endFill=1;" edge="1" parent="1" source="EnK7ZEEUQP7-fDyvzvS8-170" target="EnK7ZEEUQP7-fDyvzvS8-135">
          <mxGeometry relative="1" as="geometry" />
        </mxCell>
        <mxCell id="EnK7ZEEUQP7-fDyvzvS8-170" value="no_barang" style="ellipse;whiteSpace=wrap;html=1;fontSize=13;" vertex="1" parent="1">
          <mxGeometry x="-210" y="1660" width="120" height="80" as="geometry" />
        </mxCell>
        <mxCell id="EnK7ZEEUQP7-fDyvzvS8-175" style="edgeStyle=orthogonalEdgeStyle;rounded=0;orthogonalLoop=1;jettySize=auto;html=1;fontSize=13;endArrow=classic;endFill=1;" edge="1" parent="1" source="EnK7ZEEUQP7-fDyvzvS8-171" target="EnK7ZEEUQP7-fDyvzvS8-135">
          <mxGeometry relative="1" as="geometry" />
        </mxCell>
        <mxCell id="EnK7ZEEUQP7-fDyvzvS8-171" value="nama_barang" style="ellipse;whiteSpace=wrap;html=1;fontSize=13;" vertex="1" parent="1">
          <mxGeometry x="-210" y="1840" width="120" height="80" as="geometry" />
        </mxCell>
        <mxCell id="EnK7ZEEUQP7-fDyvzvS8-185" style="edgeStyle=orthogonalEdgeStyle;rounded=0;orthogonalLoop=1;jettySize=auto;html=1;fontSize=13;endArrow=classic;endFill=1;" edge="1" parent="1" source="EnK7ZEEUQP7-fDyvzvS8-176" target="EnK7ZEEUQP7-fDyvzvS8-154">
          <mxGeometry relative="1" as="geometry">
            <Array as="points">
              <mxPoint x="500" y="1910" />
              <mxPoint x="500" y="1790" />
            </Array>
          </mxGeometry>
        </mxCell>
        <mxCell id="EnK7ZEEUQP7-fDyvzvS8-176" value="tgl_keluar" style="ellipse;whiteSpace=wrap;html=1;fontSize=13;" vertex="1" parent="1">
          <mxGeometry x="540" y="1870" width="120" height="80" as="geometry" />
        </mxCell>
        <mxCell id="EnK7ZEEUQP7-fDyvzvS8-182" style="edgeStyle=orthogonalEdgeStyle;rounded=0;orthogonalLoop=1;jettySize=auto;html=1;entryX=1;entryY=0.5;entryDx=0;entryDy=0;fontSize=13;endArrow=classic;endFill=1;" edge="1" parent="1" source="EnK7ZEEUQP7-fDyvzvS8-177" target="EnK7ZEEUQP7-fDyvzvS8-154">
          <mxGeometry relative="1" as="geometry">
            <Array as="points">
              <mxPoint x="500" y="1820" />
              <mxPoint x="500" y="1790" />
            </Array>
          </mxGeometry>
        </mxCell>
        <mxCell id="EnK7ZEEUQP7-fDyvzvS8-177" value="tgl_masuk" style="ellipse;whiteSpace=wrap;html=1;fontSize=13;" vertex="1" parent="1">
          <mxGeometry x="540" y="1780" width="120" height="80" as="geometry" />
        </mxCell>
        <mxCell id="EnK7ZEEUQP7-fDyvzvS8-180" style="edgeStyle=orthogonalEdgeStyle;rounded=0;orthogonalLoop=1;jettySize=auto;html=1;fontSize=13;endArrow=classic;endFill=1;" edge="1" parent="1" source="EnK7ZEEUQP7-fDyvzvS8-178" target="EnK7ZEEUQP7-fDyvzvS8-154">
          <mxGeometry relative="1" as="geometry" />
        </mxCell>
        <mxCell id="EnK7ZEEUQP7-fDyvzvS8-178" value="id_barang" style="ellipse;whiteSpace=wrap;html=1;fontSize=13;" vertex="1" parent="1">
          <mxGeometry x="350" y="1620" width="120" height="80" as="geometry" />
        </mxCell>
        <mxCell id="EnK7ZEEUQP7-fDyvzvS8-181" style="edgeStyle=orthogonalEdgeStyle;rounded=0;orthogonalLoop=1;jettySize=auto;html=1;entryX=1;entryY=0.5;entryDx=0;entryDy=0;fontSize=13;endArrow=classic;endFill=1;" edge="1" parent="1" source="EnK7ZEEUQP7-fDyvzvS8-179" target="EnK7ZEEUQP7-fDyvzvS8-154">
          <mxGeometry relative="1" as="geometry">
            <Array as="points">
              <mxPoint x="500" y="1710" />
              <mxPoint x="500" y="1790" />
            </Array>
          </mxGeometry>
        </mxCell>
        <mxCell id="EnK7ZEEUQP7-fDyvzvS8-179" value="id_kb" style="ellipse;whiteSpace=wrap;html=1;fontSize=13;" vertex="1" parent="1">
          <mxGeometry x="540" y="1670" width="120" height="80" as="geometry" />
        </mxCell>
        <mxCell id="EnK7ZEEUQP7-fDyvzvS8-184" style="edgeStyle=orthogonalEdgeStyle;rounded=0;orthogonalLoop=1;jettySize=auto;html=1;fontSize=13;endArrow=classic;endFill=1;" edge="1" parent="1" source="EnK7ZEEUQP7-fDyvzvS8-183" target="EnK7ZEEUQP7-fDyvzvS8-154">
          <mxGeometry relative="1" as="geometry">
            <Array as="points">
              <mxPoint x="270" y="1720" />
              <mxPoint x="410" y="1720" />
            </Array>
          </mxGeometry>
        </mxCell>
        <mxCell id="EnK7ZEEUQP7-fDyvzvS8-183" value="no_barang" style="ellipse;whiteSpace=wrap;html=1;fontSize=13;" vertex="1" parent="1">
          <mxGeometry x="210" y="1620" width="120" height="80" as="geometry" />
        </mxCell>
      </root>
    </mxGraphModel>
  </diagram>
</mxfile>
